<?xml version="1.0" standalone="no"?>
<!DOCTYPE svg PUBLIC "-//W3C//DTD SVG 20010904//EN"
 "http://www.w3.org/TR/2001/REC-SVG-20010904/DTD/svg10.dtd">
<svg version="1.0" xmlns="http://www.w3.org/2000/svg"
 width="157.000000pt" height="157.000000pt" viewBox="0 0 157.000000 157.000000"
 preserveAspectRatio="xMidYMid meet">
<metadata>
Created by potrace 1.11, written by Peter Selinger 2001-2013
</metadata>
<g transform="translate(0.000000,157.000000) scale(0.100000,-0.100000)"
fill="#000000" stroke="none">
<path d="M180 755 l0 -515 115 0 115 0 1 28 c0 32 0 922 -1 970 l0 32 -115 0
-115 0 0 -515z"/>
<path d="M660 755 l0 -515 115 0 115 0 1 28 c0 15 0 79 0 143 l-1 117 152 5
c171 5 228 18 304 70 164 109 178 432 26 569 -84 76 -193 98 -494 98 l-218 0
0 -515z m497 288 c58 -29 78 -64 78 -136 -1 -76 -26 -132 -69 -154 -22 -12
-66 -18 -152 -21 l-121 -4 -1 172 -1 173 114 -6 c82 -4 126 -11 152 -24z"/>
</g>
</svg>
